<?xml version="1.0" encoding="UTF-8" standalone="no"?>
<!-- Created with Inkscape (http://www.inkscape.org/) -->

<svg
   width="210mm"
   height="297mm"
   viewBox="0 0 210 297"
   version="1.1"
   id="svg5"
   sodipodi:docname="logo_draft_small.svg"
   inkscape:version="1.1 (c68e22c387, 2021-05-23)"
   inkscape:export-filename="C:\Users\Anna Lukina\Documents\TUDelft\Outreach\SAIV Conference\logo_draft_small.png"
   inkscape:export-xdpi="99.996346"
   inkscape:export-ydpi="99.996346"
   xmlns:inkscape="http://www.inkscape.org/namespaces/inkscape"
   xmlns:sodipodi="http://sodipodi.sourceforge.net/DTD/sodipodi-0.dtd"
   xmlns="http://www.w3.org/2000/svg"
   xmlns:svg="http://www.w3.org/2000/svg">
  <sodipodi:namedview
     id="namedview7"
     pagecolor="#505050"
     bordercolor="#ffffff"
     borderopacity="1"
     inkscape:pageshadow="0"
     inkscape:pageopacity="0"
     inkscape:pagecheckerboard="1"
     inkscape:document-units="mm"
     showgrid="false"
     inkscape:zoom="3.4205954"
     inkscape:cx="412.64746"
     inkscape:cy="584.8397"
     inkscape:window-width="1920"
     inkscape:window-height="1017"
     inkscape:window-x="1912"
     inkscape:window-y="-8"
     inkscape:window-maximized="1"
     inkscape:current-layer="layer2" />
  <defs
     id="defs2">
    <clipPath
       clipPathUnits="userSpaceOnUse"
       id="clipPath834">
      <path
         d="M 0,7.1700015 H 222.75 V 121.92 H 0 Z"
         id="path832" />
    </clipPath>
    <clipPath
       clipPathUnits="userSpaceOnUse"
       id="clipPath844">
      <path
         d="M 0,0 H 928.125 V 478.125 H 0 Z"
         clip-rule="evenodd"
         id="path842" />
    </clipPath>
    <clipPath
       clipPathUnits="userSpaceOnUse"
       id="clipPath856">
      <path
         d="M 0,0 H 931.25 V 512.5 H 0 Z"
         id="path854" />
    </clipPath>
    <clipPath
       clipPathUnits="userSpaceOnUse"
       id="clipPath862">
      <path
         d="M 0,0 H 928.125 V 478.125 H 0 Z"
         id="path860" />
    </clipPath>
    <clipPath
       clipPathUnits="userSpaceOnUse"
       id="clipPath868">
      <path
         d="M 0,0 H 928.125 V 478.125 H 0 Z"
         id="path866" />
    </clipPath>
    <clipPath
       clipPathUnits="userSpaceOnUse"
       id="clipPath874">
      <path
         d="M 559.66962,94.999969 H 848.83631 V 384.16666 H 559.66962 Z"
         id="path872" />
    </clipPath>
    <clipPath
       clipPathUnits="userSpaceOnUse"
       id="clipPath880">
      <path
         d="m 704.25293,94.999969 20.35602,16.060411 24.32251,-8.984 14.39691,21.5647 25.90845,-1.02813 7.02856,24.95797 24.95776,7.02857 -1.02789,25.90843 21.56464,14.39688 -8.98407,24.32253 16.06048,20.35598 -16.06048,20.35596 8.98407,24.32257 -21.56464,14.39688 1.02789,25.90842 -24.95776,7.02856 -7.02856,24.9578 -25.90845,-1.0279 -14.39691,21.56461 -24.32251,-8.98404 -20.35602,16.06049 -20.35596,-16.06049 -24.32251,8.98404 -14.39691,-21.56461 -25.90845,1.0279 -7.0285,-24.9578 -24.95801,-7.02856 1.02814,-25.90842 -21.5647,-14.39688 8.98401,-24.32257 -16.06042,-20.35596 16.06042,-20.35598 -8.98401,-24.32253 21.5647,-14.39688 -1.02814,-25.90843 24.95801,-7.02857 7.0285,-24.95797 25.90845,1.02813 14.39691,-21.5647 24.32251,8.984 z"
         id="path878" />
    </clipPath>
    <clipPath
       clipPathUnits="userSpaceOnUse"
       id="clipPath892">
      <path
         d="M 0,0 H 928.125 V 478.125 H 0 Z"
         clip-rule="evenodd"
         id="path890" />
    </clipPath>
    <clipPath
       clipPathUnits="userSpaceOnUse"
       id="clipPath906">
      <path
         d="M 0,0 H 931.25 V 512.5 H 0 Z"
         id="path904" />
    </clipPath>
    <clipPath
       clipPathUnits="userSpaceOnUse"
       id="clipPath912">
      <path
         d="M 0,0 H 928.125 V 478.125 H 0 Z"
         id="path910" />
    </clipPath>
    <clipPath
       clipPathUnits="userSpaceOnUse"
       id="clipPath918">
      <path
         d="M 0,0 H 928.125 V 478.125 H 0 Z"
         id="path916" />
    </clipPath>
    <clipPath
       clipPathUnits="userSpaceOnUse"
       id="clipPath924">
      <path
         d="m 609.37988,39.379883 h 307.2583 V 307.24609 h -307.2583 z"
         id="path922" />
    </clipPath>
    <clipPath
       clipPathUnits="userSpaceOnUse"
       id="clipPath930">
      <path
         d="m 627.5,188.125 c 36.875,56.5625 77.5,88.125 76.875,97.8125 -0.3125,3.125 -6.875,6.5625 -7.5,5.9375 -1.5625,-1.25 17.8125,-35.93752 30,-56.25 15.3125,-25.625 34.6875,-57.1875 56.25,-83.4375 22.1875,-27.1875 52.5,-56.25 75.3125,-76.25 16.875,-14.6875 37.1875,-33.75 46.875,-35.3125 3.75,-0.3125 7.1875,1.25 8.4375,3.125 1.25,2.5 -0.3125,9.6875 -2.5,10.9375 -2.1875,1.25 -9.375,-0.9375 -10.625,-3.4375 -0.9375,-2.1875 1.5625,-9.0625 3.75,-10.3125 2.1875,-0.9375 9.0625,2.1875 10,4.375 1.25,2.1875 0,5.3125 -2.5,8.75 -5.625,8.125 -27.5,19.0625 -43.4375,32.8125 -21.5625,19.0625 -51.25,47.5 -72.5,73.75 -20.9375,25.9375 -39.0625,57.5 -54.6875,83.125 -12.8125,21.25 -22.5,54.6875 -32.8125,60 -4.6875,2.5 -8.125,1.5625 -13.75,-1.25 -15,-8.125 -52.5,-57.8125 -66.875,-78.75 -8.4375,-12.5 -18.125,-24.6875 -17.1875,-31.5625 0.3125,-4.0625 5,-8.4375 7.8125,-8.75 2.8125,-0.625 9.0625,4.6875 9.0625,4.6875"
         id="path928" />
    </clipPath>
  </defs>
  <g
     inkscape:groupmode="layer"
     id="layer3"
     inkscape:label="Layer 3">
    <rect
       style="fill:#333333;fill-opacity:1;stroke:#00bef1;stroke-width:0"
       id="rect41791"
       width="44.871502"
       height="21.102242"
       x="86.164001"
       y="140.21205"
       inkscape:export-filename="C:\Users\Anna Lukina\Documents\TUDelft\Outreach\SAIV Conference\logo_draft_small.png"
       inkscape:export-xdpi="25.399998"
       inkscape:export-ydpi="25.399998" />
  </g>
  <g
     inkscape:groupmode="layer"
     id="layer2"
     inkscape:label="Layer 2">
    <path
       sodipodi:type="star"
       style="fill:#008080;fill-opacity:1;stroke:#00bef1;stroke-width:0"
       id="path29973"
       inkscape:flatsided="false"
       sodipodi:sides="16"
       sodipodi:cx="233.29924"
       sodipodi:cy="505.73016"
       sodipodi:r1="56.131725"
       sodipodi:r2="49.339787"
       sodipodi:arg1="0.39530184"
       sodipodi:arg2="0.59165138"
       inkscape:rounded="0"
       inkscape:randomized="0"
       d="m 285.10211,527.34575 -10.84982,5.90281 -1.36537,12.2759 -12.28283,1.30144 -5.95922,10.81895 -11.8459,-3.49806 -9.64583,7.71491 -9.60553,-7.76502 -11.86395,3.43635 -5.90282,-10.84982 -12.2759,-1.36536 -1.30144,-12.28284 -10.81895,-5.95921 3.49806,-11.84591 -7.71491,-9.64582 7.76502,-9.60554 -3.43635,-11.86395 10.84982,-5.90282 1.36537,-12.27589 12.28283,-1.30145 5.95922,-10.81894 11.8459,3.49806 9.64583,-7.71491 9.60553,7.76501 11.86395,-3.43634 5.90282,10.84982 12.2759,1.36536 1.30144,12.28284 10.81895,5.95921 -3.49806,11.8459 7.71491,9.64583 -7.76502,9.60554 z"
       transform="matrix(0.26722946,0,0,0.26722946,71.910943,13.243342)"
       inkscape:transform-center-x="0.37570595"
       inkscape:transform-center-y="1.0703452"
       inkscape:export-filename="C:\Users\Anna Lukina\Documents\TUDelft\Outreach\SAIV Conference\logo_draft_small.png"
       inkscape:export-xdpi="25.399998"
       inkscape:export-ydpi="25.399998" />
  </g>
  <g
     inkscape:label="Layer 1"
     inkscape:groupmode="layer"
     id="layer1">
    <g
       id="g886"
       transform="matrix(0.11288888,0,0,0.11288888,47.006927,122.59716)">
      <g
         id="g888"
         clip-path="url(#clipPath892)">
        <g
           id="g894"
           transform="matrix(3.125,0,0,3.125,99.088547,70.833313)" />
      </g>
    </g>
    <text
       xml:space="preserve"
       style="font-style:normal;font-variant:normal;font-weight:normal;font-stretch:normal;font-size:23.7392px;line-height:1.25;font-family:'Ubuntu Mono';-inkscape-font-specification:'Ubuntu Mono';fill:#f6e7d8;fill-opacity:1;stroke:none;stroke-width:0.306973"
       x="87.452919"
       y="157.72874"
       id="text16261"
       inkscape:export-filename="C:\Users\Anna Lukina\Documents\TUDelft\Outreach\SAIV Conference\logo_draft_small.png"
       inkscape:export-xdpi="25.399998"
       inkscape:export-ydpi="25.399998"><tspan
         sodipodi:role="line"
         id="tspan16259"
         style="font-style:normal;font-variant:normal;font-weight:normal;font-stretch:normal;font-size:23.7392px;font-family:'Ubuntu Mono';-inkscape-font-specification:'Ubuntu Mono';fill:#f6e7d8;fill-opacity:1;stroke-width:0.306973"
         x="87.452919"
         y="157.72874">$ai</tspan></text>
    <path
       style="fill:#f6e7d8;fill-opacity:1;stroke:#00bef1;stroke-width:0;stroke-miterlimit:4;stroke-dasharray:none"
       id="path6952"
       d="m 125.54411,150.78968 c 0.17211,0.16164 0.34123,0.32651 0.51636,0.48491 1.12306,1.0159 0.36984,0.28763 1.60142,1.42716 0.48534,0.44908 1.16336,1.10128 1.62248,1.58703 0.2123,0.22463 0.41181,0.46102 0.6177,0.69151 0.6417,0.68892 1.11417,1.50361 1.66746,2.25869 0.72119,0.93664 1.22848,1.32956 2.8728,0.86333 0.43052,-0.12209 0.57994,-0.68167 0.8699,-1.0225 1.0168,-2.28758 1.9924,-4.59397 3.14692,-6.81768 0.42267,-0.81407 0.87533,-1.61223 1.31299,-2.41836 1.96343,-3.21738 0.97657,-1.6525 2.95565,-4.69775 1.47303,-2.26807 -1.73453,-4.35126 -3.20755,-2.08319 v 0 c -2.07232,3.19284 -1.03317,1.54172 -3.11029,4.95787 -0.46067,0.85064 -0.93698,1.693 -1.38205,2.55191 -1.14362,2.20704 -2.12698,4.4895 -3.12096,6.76593 0.20982,-0.18403 0.35244,-0.51766 0.62938,-0.5521 0.70063,-0.0871 1.411,0.0962 2.1075,0.21178 0.0406,0.007 0.34399,0.39632 0.0623,0.0408 -0.0191,-0.0242 -0.0393,-0.0473 -0.0591,-0.071 -0.1676,-0.22429 -0.317,-0.45845 -0.47459,-0.69001 -0.4388,-0.64479 -0.9084,-1.2673 -1.42452,-1.85297 -0.24976,-0.27696 -0.49265,-0.56031 -0.74933,-0.83089 -1.15131,-1.21359 -2.41657,-2.30887 -3.66415,-3.4202 -1.84968,-1.97301 -4.6399,0.64283 -2.79022,2.61582 z"
       inkscape:export-filename="C:\Users\Anna Lukina\Documents\TUDelft\Outreach\SAIV Conference\logo_draft_small.png"
       inkscape:export-xdpi="25.399998"
       inkscape:export-ydpi="25.399998" />
  </g>
</svg>
