<?xml version="1.0" encoding="UTF-8" standalone="no"?>
<!-- Created with Inkscape (http://www.inkscape.org/) -->

<svg
   width="1138.9446"
   height="105"
   viewBox="0 0 1138.9446 105"
   version="1.1"
   id="svg5"
   sodipodi:docname="logo_full.svg"
   inkscape:version="1.1 (c68e22c387, 2021-05-23)"
   inkscape:export-filename="C:\Users\Anna Lukina\Documents\TUDelft\Outreach\SAIV Conference\logo_draft_small.png"
   inkscape:export-xdpi="34.380989"
   inkscape:export-ydpi="34.380989"
   xmlns:inkscape="http://www.inkscape.org/namespaces/inkscape"
   xmlns:sodipodi="http://sodipodi.sourceforge.net/DTD/sodipodi-0.dtd"
   xmlns="http://www.w3.org/2000/svg"
   xmlns:svg="http://www.w3.org/2000/svg">
  <sodipodi:namedview
     id="namedview7"
     pagecolor="#505050"
     bordercolor="#ffffff"
     borderopacity="1"
     inkscape:pageshadow="0"
     inkscape:pageopacity="0"
     inkscape:pagecheckerboard="1"
     inkscape:document-units="px"
     showgrid="false"
     inkscape:zoom="0.85514885"
     inkscape:cx="498.74358"
     inkscape:cy="167.80704"
     inkscape:window-width="1920"
     inkscape:window-height="1017"
     inkscape:window-x="-8"
     inkscape:window-y="-8"
     inkscape:window-maximized="1"
     inkscape:current-layer="text16261"
     fit-margin-top="0"
     fit-margin-left="0"
     fit-margin-right="0"
     fit-margin-bottom="0"
     units="px" />
  <defs
     id="defs2">
    <clipPath
       clipPathUnits="userSpaceOnUse"
       id="clipPath834">
      <path
         d="M 0,7.1700015 H 222.75 V 121.92 H 0 Z"
         id="path832" />
    </clipPath>
    <clipPath
       clipPathUnits="userSpaceOnUse"
       id="clipPath844">
      <path
         d="M 0,0 H 928.125 V 478.125 H 0 Z"
         clip-rule="evenodd"
         id="path842" />
    </clipPath>
    <clipPath
       clipPathUnits="userSpaceOnUse"
       id="clipPath856">
      <path
         d="M 0,0 H 931.25 V 512.5 H 0 Z"
         id="path854" />
    </clipPath>
    <clipPath
       clipPathUnits="userSpaceOnUse"
       id="clipPath862">
      <path
         d="M 0,0 H 928.125 V 478.125 H 0 Z"
         id="path860" />
    </clipPath>
    <clipPath
       clipPathUnits="userSpaceOnUse"
       id="clipPath868">
      <path
         d="M 0,0 H 928.125 V 478.125 H 0 Z"
         id="path866" />
    </clipPath>
    <clipPath
       clipPathUnits="userSpaceOnUse"
       id="clipPath874">
      <path
         d="M 559.66962,94.999969 H 848.83631 V 384.16666 H 559.66962 Z"
         id="path872" />
    </clipPath>
    <clipPath
       clipPathUnits="userSpaceOnUse"
       id="clipPath880">
      <path
         d="m 704.25293,94.999969 20.35602,16.060411 24.32251,-8.984 14.39691,21.5647 25.90845,-1.02813 7.02856,24.95797 24.95776,7.02857 -1.02789,25.90843 21.56464,14.39688 -8.98407,24.32253 16.06048,20.35598 -16.06048,20.35596 8.98407,24.32257 -21.56464,14.39688 1.02789,25.90842 -24.95776,7.02856 -7.02856,24.9578 -25.90845,-1.0279 -14.39691,21.56461 -24.32251,-8.98404 -20.35602,16.06049 -20.35596,-16.06049 -24.32251,8.98404 -14.39691,-21.56461 -25.90845,1.0279 -7.0285,-24.9578 -24.95801,-7.02856 1.02814,-25.90842 -21.5647,-14.39688 8.98401,-24.32257 -16.06042,-20.35596 16.06042,-20.35598 -8.98401,-24.32253 21.5647,-14.39688 -1.02814,-25.90843 24.95801,-7.02857 7.0285,-24.95797 25.90845,1.02813 14.39691,-21.5647 24.32251,8.984 z"
         id="path878" />
    </clipPath>
    <clipPath
       clipPathUnits="userSpaceOnUse"
       id="clipPath892">
      <path
         d="M 0,0 H 928.125 V 478.125 H 0 Z"
         clip-rule="evenodd"
         id="path890" />
    </clipPath>
    <clipPath
       clipPathUnits="userSpaceOnUse"
       id="clipPath906">
      <path
         d="M 0,0 H 931.25 V 512.5 H 0 Z"
         id="path904" />
    </clipPath>
    <clipPath
       clipPathUnits="userSpaceOnUse"
       id="clipPath912">
      <path
         d="M 0,0 H 928.125 V 478.125 H 0 Z"
         id="path910" />
    </clipPath>
    <clipPath
       clipPathUnits="userSpaceOnUse"
       id="clipPath918">
      <path
         d="M 0,0 H 928.125 V 478.125 H 0 Z"
         id="path916" />
    </clipPath>
    <clipPath
       clipPathUnits="userSpaceOnUse"
       id="clipPath924">
      <path
         d="m 609.37988,39.379883 h 307.2583 V 307.24609 h -307.2583 z"
         id="path922" />
    </clipPath>
    <clipPath
       clipPathUnits="userSpaceOnUse"
       id="clipPath930">
      <path
         d="m 627.5,188.125 c 36.875,56.5625 77.5,88.125 76.875,97.8125 -0.3125,3.125 -6.875,6.5625 -7.5,5.9375 -1.5625,-1.25 17.8125,-35.93752 30,-56.25 15.3125,-25.625 34.6875,-57.1875 56.25,-83.4375 22.1875,-27.1875 52.5,-56.25 75.3125,-76.25 16.875,-14.6875 37.1875,-33.75 46.875,-35.3125 3.75,-0.3125 7.1875,1.25 8.4375,3.125 1.25,2.5 -0.3125,9.6875 -2.5,10.9375 -2.1875,1.25 -9.375,-0.9375 -10.625,-3.4375 -0.9375,-2.1875 1.5625,-9.0625 3.75,-10.3125 2.1875,-0.9375 9.0625,2.1875 10,4.375 1.25,2.1875 0,5.3125 -2.5,8.75 -5.625,8.125 -27.5,19.0625 -43.4375,32.8125 -21.5625,19.0625 -51.25,47.5 -72.5,73.75 -20.9375,25.9375 -39.0625,57.5 -54.6875,83.125 -12.8125,21.25 -22.5,54.6875 -32.8125,60 -4.6875,2.5 -8.125,1.5625 -13.75,-1.25 -15,-8.125 -52.5,-57.8125 -66.875,-78.75 -8.4375,-12.5 -18.125,-24.6875 -17.1875,-31.5625 0.3125,-4.0625 5,-8.4375 7.8125,-8.75 2.8125,-0.625 9.0625,4.6875 9.0625,4.6875"
         id="path928" />
    </clipPath>
  </defs>
  <g
     inkscape:groupmode="layer"
     id="layer3"
     inkscape:label="Layer 3"
     transform="translate(-85.76139,-132.73301)">
    <rect
       style="fill:#333333;fill-opacity:1;stroke:#00bef1;stroke-width:0"
       id="rect28021"
       width="1138.9446"
       height="88.122719"
       x="85.761391"
       y="149.61029"
       inkscape:export-filename="C:\Users\Anna Lukina\Documents\TUDelft\Outreach\SAIV Conference\logo_draft_large.png"
       inkscape:export-xdpi="99.999245"
       inkscape:export-ydpi="99.999245" />
  </g>
  <g
     inkscape:groupmode="layer"
     id="layer2"
     inkscape:label="Layer 2"
     transform="translate(-85.76139,-132.73301)">
    <g
       aria-label="$ymposium on AI   erification"
       id="text16261"
       style="font-size:77.7509px;line-height:1.25;font-family:'Ubuntu Mono';-inkscape-font-specification:'Ubuntu Mono';fill:#f6e7d8;stroke-width:1.0054">
      <path
         d="m 109.62872,208.33476 q 2.79903,0 4.66505,-0.38875 1.94377,-0.46651 3.03229,-1.24402 1.08851,-0.85526 1.55501,-1.94377 0.46651,-1.16626 0.46651,-2.48803 0,-1.94377 -0.93301,-3.26554 -0.93301,-1.39951 -2.56578,-2.41027 -1.55502,-1.08852 -3.57654,-1.86603 -2.02153,-0.85526 -4.19855,-1.63276 -2.09928,-0.77751 -4.19855,-1.71052 -2.02152,-0.93302 -3.65429,-2.25478 -1.555021,-1.39952 -2.565783,-3.26554 -1.010761,-1.94377 -1.010761,-4.7428 0,-4.97606 2.954534,-8.0861 2.95453,-3.11003 8.5526,-3.96529 v -8.00835 h 5.75357 v 7.77509 q 3.11003,0.15551 5.67581,0.77751 2.64353,0.54426 4.19855,1.16627 l -1.32177,5.44256 q -1.63276,-0.62201 -4.12079,-1.24401 -2.48803,-0.69976 -6.29783,-0.69976 -4.19854,0 -6.45332,1.55502 -2.17703,1.55501 -2.17703,4.50955 0,1.63277 0.62201,2.72128 0.69976,1.08851 1.94377,1.94377 1.24402,0.85526 2.87679,1.55502 1.71052,0.69976 3.80979,1.47727 2.64353,1.01076 5.13156,2.17702 2.48803,1.08851 4.35405,2.64353 1.86602,1.55502 2.95454,3.73205 1.16626,2.17702 1.16626,5.20931 0,4.5873 -3.03229,7.77509 -3.03228,3.18778 -9.3301,3.96529 v 8.94136 h -5.75357 v -8.70811 q -4.89831,-0.1555 -7.93059,-1.08851 -3.032288,-0.93301 -4.509555,-1.78827 l 1.71052,-5.36481 q 2.099274,1.01076 4.976055,1.94377 2.87679,0.85526 7.23084,0.85526 z"
         id="path857" />
      <path
         d="m 134.35335,221.70792 q 0.69976,0.38875 1.94378,0.622 1.32176,0.23326 2.41027,0.23326 3.8098,0 5.90907,-1.71052 2.17703,-1.63277 3.9653,-5.44257 -4.35405,-8.24159 -8.16385,-17.64945 -3.80979,-9.48561 -6.29782,-18.89347 h 6.99758 q 0.77751,3.11004 1.78827,6.76433 1.08852,3.57654 2.41028,7.38633 1.32177,3.8098 2.79903,7.69734 1.55502,3.8098 3.26554,7.30859 1.24402,-3.57654 2.33253,-7.07533 1.08851,-3.49879 2.02152,-6.99758 0.93301,-3.57655 1.86602,-7.23084 0.93301,-3.73204 1.94378,-7.85284 h 6.68657 q -2.48803,10.10762 -5.59806,19.59323 -3.03229,9.48561 -6.53108,17.5717 -1.32176,3.11004 -2.87678,5.36481 -1.47727,2.25478 -3.26554,3.73205 -1.78827,1.47726 -4.04305,2.17702 -2.25477,0.69976 -5.13156,0.69976 -1.47726,0 -3.26553,-0.38875 -1.71052,-0.38876 -2.33253,-0.69976 z"
         id="path859" />
      <path
         d="m 172.45115,179.87793 q 4.66505,-1.78827 8.78585,-1.78827 2.25477,0 4.19855,0.69976 2.02152,0.62201 3.42104,2.02152 3.34328,-2.72128 7.15308,-2.72128 1.86602,0 3.49879,0.69976 1.71052,0.69976 2.95453,2.09927 1.32177,1.39952 2.09928,3.49879 0.77751,2.09928 0.77751,4.89831 v 25.6578 h -5.83132 v -25.8133 q 0,-2.79903 -1.24402,-4.2763 -1.24401,-1.47727 -3.11003,-1.47727 -0.93301,0 -1.94377,0.46651 -1.01077,0.4665 -1.86603,1.47727 0.46651,1.78827 0.46651,3.96529 v 11.74039 h -5.83132 v -11.81814 q 0,-2.72128 -0.85526,-4.2763 -0.85526,-1.55502 -3.34329,-1.55502 -1.55501,0 -3.49879,0.69976 v 30.86711 h -5.83131 z"
         id="path861" />
      <path
         d="m 237.29524,196.98313 q 0,-6.29782 -2.95453,-9.71886 -2.95453,-3.49879 -7.69734,-3.49879 -2.64353,0 -4.19855,0.23325 -1.47726,0.23325 -2.33252,0.54426 V 207.324 q 1.08851,1.01076 3.18778,1.86602 2.09928,0.85526 4.35405,0.85526 2.56578,0 4.35405,-1.01076 1.86602,-1.01076 3.03229,-2.72128 1.16626,-1.78827 1.71052,-4.1208 0.54425,-2.41028 0.54425,-5.20931 z m 6.60883,0 q 0,4.1208 -1.08851,7.61959 -1.01076,3.42104 -3.03229,5.90907 -1.94377,2.48803 -4.82055,3.88754 -2.87679,1.39952 -6.53108,1.39952 -2.87678,0 -5.05381,-0.69976 -2.17702,-0.69976 -3.26553,-1.55502 v 14.22842 h -6.45333 v -47.81681 q 2.09927,-0.622 5.36481,-1.24401 3.34329,-0.62201 7.61959,-0.62201 3.88755,0 7.07533,1.32177 3.18779,1.32176 5.44257,3.80979 2.25477,2.41028 3.49879,5.90907 1.24401,3.49879 1.24401,7.85284 z"
         id="path863" />
      <path
         d="m 282.77938,196.90538 q 0,4.2763 -1.24402,7.77509 -1.16626,3.42104 -3.34329,5.90907 -2.17702,2.48803 -5.20931,3.88754 -3.03228,1.32177 -6.60882,1.32177 -3.49879,0 -6.53108,-1.32177 -2.95453,-1.39951 -5.13156,-3.88754 -2.17702,-2.48803 -3.42104,-5.90907 -1.16626,-3.49879 -1.16626,-7.77509 0,-4.2763 1.16626,-7.77509 1.24402,-3.49879 3.42104,-5.90907 2.17703,-2.48803 5.13156,-3.80979 3.03229,-1.39952 6.53108,-1.39952 3.57654,0 6.60882,1.39952 3.03229,1.32176 5.20931,3.80979 2.17703,2.41028 3.34329,5.90907 1.24402,3.49879 1.24402,7.77509 z m -6.60883,0 q 0,-6.14232 -2.64353,-9.64111 -2.64353,-3.57654 -7.15308,-3.57654 -4.43181,0 -7.07534,3.57654 -2.56578,3.49879 -2.56578,9.64111 0,6.06457 2.56578,9.64111 2.64353,3.49879 7.07534,3.49879 4.50955,0 7.15308,-3.49879 2.64353,-3.57654 2.64353,-9.64111 z"
         id="path865" />
      <path
         d="m 313.17983,205.92448 q 0,-1.94377 -1.63277,-3.18778 -1.55501,-1.24402 -3.96529,-2.17703 -2.33253,-0.93301 -5.13156,-1.78827 -2.79903,-0.93301 -5.20931,-2.25478 -2.33253,-1.32176 -3.9653,-3.26553 -1.55502,-1.94378 -1.55502,-5.05381 0,-4.35405 3.4988,-7.23084 3.57654,-2.95453 11.11837,-2.95453 2.95454,0 6.06457,0.46651 3.18779,0.38875 5.44257,1.08851 l -1.16627,5.75357 q -0.622,-0.31101 -1.71052,-0.62201 -1.08851,-0.38876 -2.48803,-0.62201 -1.39951,-0.311 -3.03228,-0.4665 -1.55502,-0.15551 -3.03229,-0.15551 -8.39709,0 -8.39709,4.58731 0,1.63277 1.55502,2.79903 1.63276,1.08851 4.04304,2.02152 2.41028,0.93301 5.20931,1.94378 2.79903,0.93301 5.20931,2.33252 2.41028,1.39952 3.9653,3.42104 1.63277,1.94377 1.63277,4.97606 0,4.89831 -3.8098,7.61959 -3.80979,2.64353 -12.05139,2.64353 -3.73204,0 -6.84208,-0.62201 -3.11003,-0.62201 -5.90906,-1.86602 l 1.24401,-5.83132 q 2.72128,1.24402 5.67582,2.09928 3.03228,0.77751 6.45332,0.77751 8.78585,0 8.78585,-4.43181 z"
         id="path867" />
      <path
         d="m 341.0145,173.26911 q -2.02153,0 -3.4988,-1.39952 -1.47726,-1.39952 -1.47726,-3.80979 0,-2.41028 1.47726,-3.8098 1.47727,-1.39951 3.4988,-1.39951 2.09927,0 3.49879,1.39951 1.47726,1.39952 1.47726,3.8098 0,2.41027 -1.47726,3.80979 -1.39952,1.39952 -3.49879,1.39952 z m -1.63277,10.96287 h -10.41862 v -5.36481 h 16.79419 v 22.15901 q 0,5.36481 1.47727,7.23083 1.47726,1.78827 4.4318,1.78827 2.25477,0 4.1208,-0.54425 1.94377,-0.54426 3.03228,-1.16627 l 0.93301,5.44256 q -0.4665,0.23326 -1.32176,0.62201 -0.85526,0.31101 -2.02153,0.62201 -1.08851,0.311 -2.48803,0.54426 -1.32176,0.23325 -2.79903,0.23325 -3.42104,0 -5.67581,-0.93301 -2.25478,-0.93301 -3.6543,-2.79904 -1.32176,-1.86602 -1.86602,-4.5873 -0.54425,-2.79903 -0.54425,-6.45332 z"
         id="path869" />
      <path
         d="m 396.995,213.93283 q -2.09928,0.54425 -5.59807,1.16626 -3.42104,0.62201 -8.08609,0.62201 -4.1208,0 -6.84208,-1.16627 -2.72128,-1.24401 -4.4318,-3.42104 -1.71052,-2.25477 -2.41028,-5.28706 -0.69976,-3.03228 -0.69976,-6.68657 v -20.29299 h 6.37558 v 18.89347 q 0,6.68658 1.94377,9.48561 2.02152,2.79903 6.68658,2.79903 1.01076,0 2.02152,-0.0777 1.08851,-0.0778 2.02152,-0.1555 0.93301,-0.1555 1.63277,-0.23325 0.69976,-0.15551 0.93301,-0.23326 v -30.47835 h 6.45333 z"
         id="path871" />
      <path
         d="m 405.70295,179.87793 q 4.66506,-1.78827 8.78586,-1.78827 2.25477,0 4.19854,0.69976 2.02153,0.62201 3.42104,2.02152 3.34329,-2.72128 7.15309,-2.72128 1.86602,0 3.49879,0.69976 1.71052,0.69976 2.95453,2.09927 1.32177,1.39952 2.09928,3.49879 0.7775,2.09928 0.7775,4.89831 v 25.6578 h -5.83131 v -25.8133 q 0,-2.79903 -1.24402,-4.2763 -1.24401,-1.47727 -3.11003,-1.47727 -0.93301,0 -1.94378,0.46651 -1.01076,0.4665 -1.86602,1.47727 0.46651,1.78827 0.46651,3.96529 v 11.74039 h -5.83132 v -11.81814 q 0,-2.72128 -0.85526,-4.2763 -0.85526,-1.55502 -3.34329,-1.55502 -1.55502,0 -3.49879,0.69976 v 30.86711 h -5.83132 z"
         id="path873" />
      <path
         d="m 516.03119,196.90538 q 0,4.2763 -1.24401,7.77509 -1.16627,3.42104 -3.34329,5.90907 -2.17703,2.48803 -5.20931,3.88754 -3.03229,1.32177 -6.60883,1.32177 -3.49879,0 -6.53107,-1.32177 -2.95454,-1.39951 -5.13156,-3.88754 -2.17703,-2.48803 -3.42104,-5.90907 -1.16627,-3.49879 -1.16627,-7.77509 0,-4.2763 1.16627,-7.77509 1.24401,-3.49879 3.42104,-5.90907 2.17702,-2.48803 5.13156,-3.80979 3.03228,-1.39952 6.53107,-1.39952 3.57654,0 6.60883,1.39952 3.03228,1.32176 5.20931,3.80979 2.17702,2.41028 3.34329,5.90907 1.24401,3.49879 1.24401,7.77509 z m -6.60882,0 q 0,-6.14232 -2.64354,-9.64111 -2.64353,-3.57654 -7.15308,-3.57654 -4.4318,0 -7.07533,3.57654 -2.56578,3.49879 -2.56578,9.64111 0,6.06457 2.56578,9.64111 2.64353,3.49879 7.07533,3.49879 4.50955,0 7.15308,-3.49879 2.64354,-3.57654 2.64354,-9.64111 z"
         id="path875" />
      <path
         d="m 524.6614,179.87793 q 3.49879,-0.85526 6.91983,-1.32176 3.49879,-0.46651 6.53107,-0.46651 7.23084,0 10.88513,3.73204 3.73204,3.73205 3.73204,11.97364 v 21.14825 h -6.37557 v -19.98198 q 0,-3.49879 -0.62201,-5.67582 -0.62201,-2.17702 -1.78827,-3.34329 -1.08851,-1.24401 -2.72128,-1.71052 -1.55502,-0.4665 -3.42104,-0.4665 -1.55502,0 -3.34329,0.23325 -1.71052,0.1555 -3.34329,0.46651 v 30.47835 h -6.45332 z"
         id="path877" />
      <path
         d="m 628.30303,214.94359 -2.87679,-12.59565 h -18.50471 l -2.79903,12.59565 h -6.53108 q 1.32177,-5.13156 2.95453,-11.11838 1.63277,-5.98682 3.4988,-12.28464 1.94377,-6.29783 4.04304,-12.59565 2.09928,-6.37557 4.4318,-12.12914 h 7.9306 q 2.25477,5.75357 4.27629,12.12914 2.09928,6.29782 3.88755,12.59565 1.86602,6.29782 3.49879,12.28464 1.63277,5.98682 2.95453,11.11838 z m -12.05139,-42.52974 q -1.78827,4.8983 -3.88755,11.35163 -2.09927,6.45332 -3.96529,13.2954 h 15.55018 q -1.78827,-6.99758 -3.88755,-13.4509 -2.02152,-6.53108 -3.80979,-11.19613 z"
         id="path879" />
      <path
         d="m 658.39248,172.25834 v 37.24269 h 9.33011 v 5.44256 H 642.6868 v -5.44256 h 9.33011 v -37.24269 h -9.33011 v -5.44256 h 25.03579 v 5.44256 z"
         id="path881" />
      <path
         d="m 811.40567,178.01191 q 7.30859,0 11.27388,4.5873 3.9653,4.50956 3.9653,13.76191 v 2.25478 h -25.8133 q 0.38875,5.59806 3.65429,8.5526 3.34329,2.87678 9.33011,2.87678 3.42104,0 5.83132,-0.54425 2.41027,-0.54426 3.65429,-1.16627 l 0.85526,5.44256 q -1.16626,0.62201 -4.19855,1.32177 -3.03228,0.69976 -6.84208,0.69976 -4.66505,0 -8.24159,-1.39952 -3.49879,-1.47727 -5.83132,-3.96529 -2.33253,-2.48803 -3.49879,-5.90907 -1.16627,-3.49879 -1.16627,-7.54184 0,-4.82056 1.47727,-8.3971 1.47727,-3.57654 3.88755,-5.90907 2.41027,-2.33252 5.44256,-3.49879 3.03228,-1.16626 6.22007,-1.16626 z m 8.7081,15.39468 q 0,-4.5873 -2.41028,-7.23083 -2.41027,-2.72129 -6.37557,-2.72129 -2.25478,0 -4.1208,0.85526 -1.78827,0.85526 -3.11003,2.25478 -1.32177,1.39952 -2.09928,3.18779 -0.77751,1.78827 -1.01076,3.65429 z"
         id="path883" />
      <path
         d="m 838.46284,214.94359 v -34.13265 q 7.93059,-2.72128 16.01669,-2.72128 2.48802,0 4.7428,0.23325 2.25478,0.15551 4.97606,0.77751 l -1.16627,5.67582 q -2.48802,-0.69976 -4.4318,-0.85526 -1.86602,-0.23325 -4.12079,-0.23325 -4.74281,0 -9.64112,1.32176 v 29.9341 z"
         id="path885" />
      <path
         d="m 885.26874,173.26911 q -2.02153,0 -3.49879,-1.39952 -1.47727,-1.39952 -1.47727,-3.80979 0,-2.41028 1.47727,-3.8098 1.47726,-1.39951 3.49879,-1.39951 2.09927,0 3.49879,1.39951 1.47726,1.39952 1.47726,3.8098 0,2.41027 -1.47726,3.80979 -1.39952,1.39952 -3.49879,1.39952 z m -1.63277,10.96287 h -10.41862 v -5.36481 h 16.79419 v 22.15901 q 0,5.36481 1.47727,7.23083 1.47727,1.78827 4.4318,1.78827 2.25478,0 4.1208,-0.54425 1.94377,-0.54426 3.03228,-1.16627 l 0.93301,5.44256 q -0.4665,0.23326 -1.32176,0.62201 -0.85526,0.31101 -2.02152,0.62201 -1.08852,0.311 -2.48803,0.54426 -1.32177,0.23325 -2.79904,0.23325 -3.42104,0 -5.67581,-0.93301 -2.25478,-0.93301 -3.65429,-2.79904 -1.32177,-1.86602 -1.86603,-4.5873 -0.54425,-2.79903 -0.54425,-6.45332 z"
         id="path887" />
      <path
         d="m 920.412,214.94359 v -30.71161 h -7.61959 v -5.36481 h 7.61959 v -3.26554 q 0,-4.19855 1.16626,-6.91983 1.16627,-2.79903 3.03229,-4.50955 1.94377,-1.71052 4.4318,-2.41028 2.56578,-0.69976 5.36481,-0.69976 2.79903,0 5.59807,0.62201 2.87678,0.62201 5.36481,1.47727 l -1.16627,5.52031 q -1.71052,-0.85526 -4.2763,-1.47726 -2.56577,-0.62201 -5.20931,-0.62201 -1.63276,0 -3.11003,0.4665 -1.39952,0.38876 -2.48803,1.47727 -1.08851,1.01076 -1.71052,2.79903 -0.62201,1.71052 -0.62201,4.35405 v 3.18779 h 14.53942 v 5.36481 h -14.53942 v 30.71161 z"
         id="path889" />
      <path
         d="m 963.01935,173.26911 q -2.02153,0 -3.49879,-1.39952 -1.47727,-1.39952 -1.47727,-3.80979 0,-2.41028 1.47727,-3.8098 1.47726,-1.39951 3.49879,-1.39951 2.09927,0 3.49879,1.39951 1.47726,1.39952 1.47726,3.8098 0,2.41027 -1.47726,3.80979 -1.39952,1.39952 -3.49879,1.39952 z m -1.63277,10.96287 h -10.41862 v -5.36481 h 16.79419 v 22.15901 q 0,5.36481 1.47727,7.23083 1.47727,1.78827 4.4318,1.78827 2.25478,0 4.1208,-0.54425 1.94377,-0.54426 3.03228,-1.16627 l 0.93301,5.44256 q -0.4665,0.23326 -1.32176,0.62201 -0.85526,0.31101 -2.02152,0.62201 -1.08852,0.311 -2.48803,0.54426 -1.32177,0.23325 -2.79904,0.23325 -3.42104,0 -5.67581,-0.93301 -2.25478,-0.93301 -3.65429,-2.79904 -1.32177,-1.86602 -1.86603,-4.5873 -0.54425,-2.79903 -0.54425,-6.45332 z"
         id="path891" />
      <path
         d="m 989.45451,196.98313 q 0,-4.89831 1.55502,-8.47485 1.55501,-3.57654 4.2763,-5.90907 2.72128,-2.33252 6.29777,-3.42104 3.6543,-1.16626 7.7751,-1.16626 2.6436,0 5.2093,0.38876 2.6436,0.311 5.5981,1.24401 l -1.4773,5.52031 q -2.5657,-0.93301 -4.7428,-1.16626 -2.0992,-0.311 -4.2763,-0.311 -2.799,0 -5.287,0.77751 -2.488,0.69975 -4.3541,2.33252 -1.78824,1.55502 -2.87675,4.1208 -1.08852,2.48803 -1.08852,6.06457 0,3.42104 1.01077,5.90907 1.01076,2.41028 2.79903,4.04305 1.86607,1.55501 4.43177,2.33252 2.5658,0.77751 5.6758,0.77751 2.4881,0 4.7429,-0.23325 2.3325,-0.311 5.0538,-1.24402 l 0.933,5.36482 q -2.7213,1.01076 -5.5203,1.39951 -2.7991,0.46651 -6.0646,0.46651 -4.3541,0 -8.0084,-1.16627 -3.5765,-1.24401 -6.22003,-3.57654 -2.56578,-2.33252 -4.04305,-5.83131 -1.39951,-3.57655 -1.39951,-8.2416 z"
         id="path893" />
      <path
         d="m 1044.3464,210.35629 q 2.4103,0 4.2763,-0.15551 1.9438,-0.1555 3.1878,-0.38875 V 199.0824 q -1.244,-0.38875 -3.0323,-0.622 -1.7105,-0.23326 -3.6543,-0.23326 -1.7882,0 -3.4987,0.31101 -1.7106,0.23325 -3.0323,0.93301 -1.3218,0.69976 -2.1771,1.86602 -0.8552,1.08851 -0.8552,2.79903 0,3.49879 2.3325,4.89831 2.4103,1.32177 6.4533,1.32177 z m -0.622,-32.34438 q 4.0431,0 6.7644,1.01076 2.799,1.01076 4.5095,2.79903 1.7105,1.78828 2.4103,4.35406 0.6997,2.56577 0.6997,5.59806 v 22.54776 q -2.2547,0.38876 -5.9868,0.93301 -3.6543,0.54426 -7.5418,0.54426 -2.9545,0 -5.7536,-0.54426 -2.799,-0.4665 -4.976,-1.71052 -2.1771,-1.32176 -3.4988,-3.57654 -1.3218,-2.25478 -1.3218,-5.75357 0,-3.11003 1.3218,-5.20931 1.3995,-2.17702 3.4988,-3.49879 2.177,-1.32176 4.8983,-1.86602 2.799,-0.62201 5.598,-0.62201 3.8098,0 7.4641,0.85526 v -1.78827 q 0,-1.63277 -0.3887,-3.11003 -0.311,-1.55502 -1.3218,-2.79903 -0.933,-1.24402 -2.6435,-1.94378 -1.6328,-0.77751 -4.2763,-0.77751 -3.3433,0 -5.8313,0.46651 -2.4881,0.4665 -3.8098,0.93301 l -0.7775,-5.28706 q 1.3217,-0.62201 4.354,-1.08851 3.11,-0.46651 6.6088,-0.46651 z"
         id="path895" />
      <path
         d="m 1082.2887,178.86717 h 15.2392 v 5.36481 h -15.2392 v 16.7942 q 0,2.72128 0.3888,4.4318 0.3887,1.71052 1.244,2.79903 0.933,1.01076 2.3325,1.39952 1.3995,0.38875 3.4211,0.38875 2.799,0 4.5095,-0.4665 1.7105,-0.46651 3.2656,-1.24402 l 0.933,5.44256 q -1.0885,0.46651 -3.4988,1.24402 -2.3325,0.77751 -5.8313,0.77751 -4.0431,0 -6.6089,-0.93301 -2.5657,-0.93301 -4.043,-2.79904 -1.3995,-1.86602 -1.9438,-4.5873 -0.5442,-2.79903 -0.5442,-6.45332 v -16.7942 h -7.6196 v -5.36481 h 7.6196 v -10.10762 l 6.3755,-1.08851 z"
         id="path897" />
      <path
         d="m 1118.5205,173.26911 q -2.0215,0 -3.4988,-1.39952 -1.4773,-1.39952 -1.4773,-3.80979 0,-2.41028 1.4773,-3.8098 1.4773,-1.39951 3.4988,-1.39951 2.0993,0 3.4988,1.39951 1.4773,1.39952 1.4773,3.8098 0,2.41027 -1.4773,3.80979 -1.3995,1.39952 -3.4988,1.39952 z m -1.6328,10.96287 h -10.4186 v -5.36481 h 16.7942 v 22.15901 q 0,5.36481 1.4773,7.23083 1.4772,1.78827 4.4318,1.78827 2.2548,0 4.1208,-0.54425 1.9438,-0.54426 3.0323,-1.16627 l 0.933,5.44256 q -0.4665,0.23326 -1.3218,0.62201 -0.8553,0.31101 -2.0215,0.62201 -1.0885,0.311 -2.488,0.54426 -1.3218,0.23325 -2.7991,0.23325 -3.421,0 -5.6758,-0.93301 -2.2548,-0.93301 -3.6543,-2.79904 -1.3217,-1.86602 -1.866,-4.5873 -0.5443,-2.79903 -0.5443,-6.45332 z"
         id="path899" />
      <path
         d="m 1176.9113,196.90538 q 0,4.2763 -1.244,7.77509 -1.1662,3.42104 -3.3433,5.90907 -2.177,2.48803 -5.2093,3.88754 -3.0322,1.32177 -6.6088,1.32177 -3.4988,0 -6.5311,-1.32177 -2.9545,-1.39951 -5.1315,-3.88754 -2.1771,-2.48803 -3.4211,-5.90907 -1.1662,-3.49879 -1.1662,-7.77509 0,-4.2763 1.1662,-7.77509 1.244,-3.49879 3.4211,-5.90907 2.177,-2.48803 5.1315,-3.80979 3.0323,-1.39952 6.5311,-1.39952 3.5766,0 6.6088,1.39952 3.0323,1.32176 5.2093,3.80979 2.1771,2.41028 3.3433,5.90907 1.244,3.49879 1.244,7.77509 z m -6.6088,0 q 0,-6.14232 -2.6435,-9.64111 -2.6435,-3.57654 -7.1531,-3.57654 -4.4318,0 -7.0753,3.57654 -2.5658,3.49879 -2.5658,9.64111 0,6.06457 2.5658,9.64111 2.6435,3.49879 7.0753,3.49879 4.5096,0 7.1531,-3.49879 2.6435,-3.57654 2.6435,-9.64111 z"
         id="path901" />
      <path
         d="m 1185.5415,179.87793 q 3.4988,-0.85526 6.9198,-1.32176 3.4988,-0.46651 6.5311,-0.46651 7.2308,0 10.8851,3.73204 3.7321,3.73205 3.7321,11.97364 v 21.14825 h -6.3756 v -19.98198 q 0,-3.49879 -0.622,-5.67582 -0.622,-2.17702 -1.7883,-3.34329 -1.0885,-1.24401 -2.7213,-1.71052 -1.555,-0.4665 -3.421,-0.4665 -1.555,0 -3.3433,0.23325 -1.7105,0.1555 -3.3433,0.46651 v 30.47835 h -6.4533 z"
         id="path903" />
    </g>
    <path
       sodipodi:type="star"
       style="fill:#008080;fill-opacity:1;stroke:#00bef1;stroke-width:0"
       id="path29973"
       inkscape:flatsided="false"
       sodipodi:sides="16"
       sodipodi:cx="233.29924"
       sodipodi:cy="505.73016"
       sodipodi:r1="56.131725"
       sodipodi:r2="49.339787"
       sodipodi:arg1="0.39530184"
       sodipodi:arg2="0.59165138"
       inkscape:rounded="0"
       inkscape:randomized="0"
       d="m 285.10211,527.34575 -10.84982,5.90281 -1.36537,12.2759 -12.28283,1.30144 -5.95922,10.81895 -11.8459,-3.49806 -9.64583,7.71491 -9.60553,-7.76502 -11.86395,3.43635 -5.90282,-10.84982 -12.2759,-1.36536 -1.30144,-12.28284 -10.81895,-5.95921 3.49806,-11.84591 -7.71491,-9.64582 7.76502,-9.60554 -3.43635,-11.86395 10.84982,-5.90282 1.36537,-12.27589 12.28283,-1.30145 5.95922,-10.81894 11.8459,3.49806 9.64583,-7.71491 9.60553,7.76501 11.86395,-3.43634 5.90282,10.84982 12.2759,1.36536 1.30144,12.28284 10.81895,5.95921 -3.49806,11.8459 7.71491,9.64583 -7.76502,9.60554 z"
       transform="matrix(0.87523127,0,0,0.87523127,531.5872,-260.76977)"
       inkscape:transform-center-x="1.2305191"
       inkscape:transform-center-y="3.505604"
       inkscape:export-filename="C:\Users\Anna Lukina\Documents\TUDelft\Outreach\SAIV Conference\logo_draft_large.png"
       inkscape:export-xdpi="99.999245"
       inkscape:export-ydpi="99.999245" />
  </g>
  <g
     inkscape:label="Layer 1"
     inkscape:groupmode="layer"
     id="layer1"
     transform="translate(-85.76139,-132.73301)">
    <g
       id="g886"
       transform="matrix(0.11288888,0,0,0.11288888,47.006927,122.59716)">
      <g
         id="g888"
         clip-path="url(#clipPath892)">
        <g
           id="g894"
           transform="matrix(3.125,0,0,3.125,99.088547,70.833313)" />
      </g>
    </g>
    <path
       style="fill:#f6e7d8;fill-opacity:1;stroke:#00bef1;stroke-width:0;stroke-miterlimit:4;stroke-dasharray:none"
       id="path6952"
       d="m 707.24683,189.72267 c 0.56368,0.52941 1.1176,1.06938 1.69116,1.58819 3.67826,3.32726 1.2113,0.94204 5.24497,4.67422 1.58959,1.47084 3.81028,3.60694 5.31399,5.19786 0.69531,0.7357 1.34875,1.50994 2.02308,2.26483 2.10171,2.25637 3.64912,4.92465 5.46127,7.39768 2.36204,3.06769 4.02352,4.35458 9.40902,2.82757 1.41004,-0.39987 1.8994,-2.23261 2.84908,-3.34888 3.33022,-7.4923 6.52551,-15.04619 10.30683,-22.3293 1.38432,-2.66626 2.86686,-5.28039 4.30031,-7.92062 6.43063,-10.5376 3.19844,-5.41229 9.68034,-15.38609 4.82447,-7.42842 -5.68095,-14.25128 -10.50538,-6.8229 v 0 c -6.78726,10.45723 -3.38384,5.04947 -10.18683,16.23804 -1.5088,2.78603 -3.06879,5.54494 -4.52648,8.35803 -3.7456,7.2285 -6.96631,14.70404 -10.22179,22.15982 0.68718,-0.60275 1.1543,-1.69546 2.06135,-1.80824 2.2947,-0.28537 4.62129,0.31502 6.90247,0.6936 0.13299,0.0228 1.12664,1.29806 0.20405,0.13376 -0.0627,-0.0794 -0.12881,-0.15504 -0.19341,-0.23255 -0.54894,-0.73461 -1.03826,-1.50151 -1.5544,-2.25994 -1.43714,-2.11181 -2.9752,-4.15067 -4.6656,-6.06884 -0.81802,-0.90712 -1.61353,-1.83514 -2.45419,-2.72132 -3.77079,-3.97477 -7.91477,-7.56203 -12.00084,-11.20187 -6.05809,-6.46202 -15.19663,2.10539 -9.13855,8.56733 z"
       inkscape:export-filename="C:\Users\Anna Lukina\Documents\TUDelft\Outreach\SAIV Conference\logo_draft_large.png"
       inkscape:export-xdpi="99.999245"
       inkscape:export-ydpi="99.999245" />
  </g>
</svg>
